<svg xmlns="http://www.w3.org/2000/svg" viewBox="0 0 512 512">
  <rect width="512" height="512" rx="80" fill="#F7DC37"/>

  <g transform="rotate(-3, 256, 270)">
    <!-- M -->
    <path d="M30 390 L30 110 L88 110 L133 210 L143 240 L153 210 L198 110 L256 110 L256 390 L198 390 L198 230 L153 340 L133 340 L88 230 L88 390 Z" fill="#1a1a1a"/>

    <!-- A -->
    <path d="M262 390 L322 110 L380 110 L440 390 L382 390 L370 340 L332 340 L320 390 Z M340 290 L362 290 L351 210 Z" fill="#1a1a1a"/>

    <!-- D -->
    <path d="M448 110 L448 390 L492 390 L515 370 L528 340 L534 290 L534 210 L528 160 L515 130 L492 110 Z M500 170 L510 185 L514 210 L514 290 L510 315 L500 330 L500 170 Z" fill="#1a1a1a"/>
  </g>
</svg>
